<?xml version="1.0" encoding="UTF-8" standalone="no"?>
<svg
   xmlns:dc="http://purl.org/dc/elements/1.1/"
   xmlns:cc="http://creativecommons.org/ns#"
   xmlns:rdf="http://www.w3.org/1999/02/22-rdf-syntax-ns#"
   xmlns:svg="http://www.w3.org/2000/svg"
   xmlns="http://www.w3.org/2000/svg"
   xmlns:xlink="http://www.w3.org/1999/xlink"
   xmlns:sodipodi="http://sodipodi.sourceforge.net/DTD/sodipodi-0.dtd"
   xmlns:inkscape="http://www.inkscape.org/namespaces/inkscape"
   version="1.1"
   preserveAspectRatio="xMidYMid meet"
   viewBox="0 0 229.41 229.41"
   width="229.41"
   height="229.41"
   id="svg28"
   sodipodi:docname="gis4wrf_logo.svg"
   inkscape:version="0.92.3 (2405546, 2018-03-11)">
  <metadata
     id="metadata32">
    <rdf:RDF>
      <cc:Work
         rdf:about="">
        <dc:format>image/svg+xml</dc:format>
        <dc:type
           rdf:resource="http://purl.org/dc/dcmitype/StillImage" />
        <dc:title></dc:title>
      </cc:Work>
    </rdf:RDF>
  </metadata>
  <sodipodi:namedview
     pagecolor="#ffffff"
     bordercolor="#666666"
     borderopacity="1"
     objecttolerance="10"
     gridtolerance="10"
     guidetolerance="10"
     inkscape:pageopacity="0"
     inkscape:pageshadow="2"
     inkscape:window-width="640"
     inkscape:window-height="480"
     id="namedview30"
     showgrid="false"
     fit-margin-top="0"
     fit-margin-left="0"
     fit-margin-right="0"
     fit-margin-bottom="0"
     inkscape:zoom="0.36875"
     inkscape:cx="168.71"
     inkscape:cy="93.1"
     inkscape:window-x="0"
     inkscape:window-y="0"
     inkscape:window-maximized="0"
     inkscape:current-layer="svg28" />
  <defs
     id="defs6">
    <path
       d="m 380.7,298.4 c 0,63.3 -51.4,114.7 -114.71,114.7 -63.31,0 -114.7,-51.4 -114.7,-114.7 0,-63.31 51.39,-114.71 114.7,-114.71 63.31,0 114.71,51.4 114.71,114.71 z"
       id="c2saNhksoe"
       inkscape:connector-curvature="0" />
    <path
       d="m 378.58,293.77 c 0,55.64 -50.93,100.81 -113.65,100.81 -62.72,0 -113.64,-45.17 -113.64,-100.81 0,-55.65 50.92,-100.82 113.64,-100.82 62.72,0 113.65,45.17 113.65,100.82 z"
       id="adGb3ZQN5"
       inkscape:connector-curvature="0" />
    <path
       d="m 363.72,266.51 c 0,38.89 -39.18,70.46 -87.44,70.46 -48.26,0 -87.44,-31.57 -87.44,-70.46 0,-38.9 39.18,-70.47 87.44,-70.47 48.26,0 87.44,31.57 87.44,70.47 z"
       id="a2xxBkIPuR"
       inkscape:connector-curvature="0" />
    <path
       d="m 350.8,245.42 c 0,24.41 -25.12,44.23 -56.06,44.23 -30.95,0 -56.07,-19.82 -56.07,-44.23 0,-24.42 25.12,-44.24 56.07,-44.24 30.94,0 56.06,19.82 56.06,44.24 z"
       id="h2lEaPjQht"
       inkscape:connector-curvature="0" />
  </defs>
  <g
     id="g26"
     transform="translate(-151.29,-183.69)">
    <g
       id="g24">
      <g
         id="g10">
        <use
           xlink:href="#c2saNhksoe"
           id="use8"
           style="opacity:1;fill:#440154;fill-opacity:1"
           x="0"
           y="0"
           width="100%"
           height="100%" />
      </g>
      <g
         id="g14">
        <use
           xlink:href="#adGb3ZQN5"
           id="use12"
           style="opacity:1;fill:#31688e;fill-opacity:1"
           x="0"
           y="0"
           width="100%"
           height="100%" />
      </g>
      <g
         id="g18">
        <use
           xlink:href="#a2xxBkIPuR"
           id="use16"
           style="opacity:1;fill:#35b779;fill-opacity:1"
           x="0"
           y="0"
           width="100%"
           height="100%" />
      </g>
      <g
         id="g22">
        <use
           xlink:href="#h2lEaPjQht"
           id="use20"
           style="opacity:1;fill:#ffffff;fill-opacity:1"
           x="0"
           y="0"
           width="100%"
           height="100%" />
      </g>
    </g>
  </g>
</svg>
